<?xml version="1.0" encoding="utf-8"?>
<!-- Generator: Adobe Illustrator 16.0.0, SVG Export Plug-In . SVG Version: 6.00 Build 0)  -->
<!DOCTYPE svg PUBLIC "-//W3C//DTD SVG 1.1//EN" "http://www.w3.org/Graphics/SVG/1.1/DTD/svg11.dtd">
<svg version="1.1" id="Layer_1" xmlns="http://www.w3.org/2000/svg" xmlns:xlink="http://www.w3.org/1999/xlink" x="0px" y="0px"
	 width="460.801px" height="345.601px" viewBox="0 0 460.801 345.601" enable-background="new 0 0 460.801 345.601"
	 xml:space="preserve">
<g>
	<path fill-rule="evenodd" clip-rule="evenodd" fill="none" stroke="#000000" stroke-width="5" stroke-miterlimit="10" d="
		M285.157,54.485c13.444,0.94,27.375,3.687,41.173,7.341c21.825,5.78,41.22,15.872,55.944,33.251
		c9.753,11.513,16.344,24.894,16.517,40.439c0.115,10.42-4.089,19.678-10.294,27.78c-8.207,10.715-19.127,18.571-30.392,25.646
		c-54.691,34.35-111.828,64.059-171.384,89.063c-17.797,7.472-36.514,11.513-55.664,13.503c-15.246,1.586-30.515,2.954-45.787,4.275
		c-1.954,0.169-4.055-0.298-5.961-0.882c-3.442-1.054-4.764-3.366-4.232-6.875c2.258-14.903,6.663-29.111,13.369-42.649
		c17.584-35.495,36.992-69.915,60.026-102.197c15.872-22.244,33.688-42.782,54.901-60.127c11.223-9.176,24.115-15.912,37.607-20.768
		c9.901-3.564,20.703-4.693,31.153-6.642C276.117,54.901,280.236,54.897,285.157,54.485z"/>
</g>
<path fill-rule="evenodd" clip-rule="evenodd" fill="#4D4D4D" d="M382.274,95.078c-14.725-17.38-34.119-27.471-55.944-33.251
	c-13.798-3.655-27.729-6.401-41.173-7.341c-4.921,0.412-9.04,0.416-13.022,1.158c-10.45,1.949-21.252,3.077-31.153,6.642
	c-13.492,4.856-26.385,11.592-37.607,20.768c-21.213,17.345-39.029,37.883-54.901,60.127
	c-23.034,32.282-42.442,66.702-60.026,102.197c-6.706,13.538-11.111,27.746-13.369,42.649c-0.532,3.509,0.791,5.821,4.232,6.875
	c1.907,0.584,4.008,1.051,5.961,0.882c15.271-1.321,30.541-2.689,45.787-4.275c19.15-1.99,37.867-6.031,55.664-13.503
	c59.556-25.004,116.692-54.713,171.384-89.063c11.265-7.075,22.185-14.932,30.392-25.646c6.205-8.102,10.409-17.359,10.294-27.78
	C398.618,119.972,392.027,106.591,382.274,95.078z M241.5,191c-21.263,0-38.5-6.492-38.5-14.5c0-8.008,17.237-14.5,38.5-14.5
	c21.263,0,38.5,6.492,38.5,14.5C280,184.508,262.763,191,241.5,191z"/>
</svg>
